<?xml version="1.0" encoding="UTF-8" standalone="no"?>
<!DOCTYPE svg PUBLIC "-//W3C//DTD SVG 1.1//EN" "http://www.w3.org/Graphics/SVG/1.1/DTD/svg11.dtd">
<!-- Created with Vectornator (http://vectornator.io/) -->
<svg height="100%" stroke-miterlimit="10" style="fill-rule:nonzero;clip-rule:evenodd;stroke-linecap:round;stroke-linejoin:round;" version="1.1" viewBox="0 0 1800 1800" width="100%" xml:space="preserve" xmlns="http://www.w3.org/2000/svg" xmlns:vectornator="http://vectornator.io" xmlns:xlink="http://www.w3.org/1999/xlink">
<defs/>
<g id="Layer-1" vectornator:layerName="Layer 1"/>
<g id="trace" vectornator:layerName="trace">
<path d="M557.896 891.586L566.94 872.5C566.94 872.5 416.598 874.307 300.628 911.088C184.659 947.868 169.451 968.291 49.8681 989.41C49.8681 989.41 9.80751 1032.47 227.653 965.786C359.678 942.277 355.08 923.236 500.9 926.135C500.9 926.135 478.678 928.517 464.274 1032.77C456.147 1091.59 417.316 1102.15 364.217 1101.3C323.213 1100.65 275.027 1097.4 219.446 1098.66C219.446 1098.66 182.022 1144.68 76.9087 1157.46C76.9087 1157.46 54.7159 1202.05 123.443 1191.06L226.747 1140.21C226.747 1140.21 266.534 1129.66 262.527 1137.22C258.52 1144.79 227.577 1168.85 185.683 1174C185.683 1174 176.121 1171.9 153.033 1194.46C153.033 1194.46 165.964 1244.98 231.201 1177.08C231.201 1177.08 264.788 1175.4 320.25 1138.82C320.25 1138.82 464.232 1143.6 491.108 1132.46C517.983 1121.33 571.502 1072.22 571.502 1072.22C571.502 1072.22 579.43 1057.53 561.827 1046.62C522.394 1080.48 505.68 1109 419.455 1122.53L236.114 1122.43C236.114 1122.43 151.134 1168.87 106.213 1169.09C106.213 1169.09 181.733 1146.74 229.323 1111.4C229.323 1111.4 407.278 1110.1 422.349 1107.08C437.42 1104.07 472.187 1100 482.549 1039.88C492.912 979.757 510.414 948.861 548.193 907.117C495.509 886.607 274.615 929.504 134.842 982.493C134.842 982.493 365.416 880.428 557.896 891.586Z" fill="#f7931e" fill-rule="nonzero" opacity="1" stroke="#f7931e" stroke-linecap="butt" stroke-linejoin="round" stroke-width="1"/>
<path d="M683.252 843.032C680.165 847.07 778.311 791.177 873.369 797.165C967.644 763.368 907.476 761.458 1066.94 744.752C1154.81 704.273 1150.54 683.133 1196.8 685.928C1214.91 709.497 1216.06 708.929 1216.06 708.929C1216.06 708.929 1221.6 717.592 1248.06 693.775C1285.92 694.682 1284.74 691.58 1284.74 691.58L1298.57 676.989L1249.81 659.879C1249.81 659.879 1320.7 655.749 1378.38 638.594C1413.96 669.12 1427.8 666.822 1432.17 665.859L1442.73 650.676L1527.82 661.461C1527.82 661.461 1495.21 700.834 1467.87 701.459C1440.52 702.083 1422.02 708.004 1412.31 699.944C1402.61 691.884 1398.52 690.687 1356.05 706.215C1313.58 721.743 1278.03 705.763 1278.03 705.763C1278.03 705.763 1286.35 739.942 1220.83 762.814C1169.84 795.104 1165.72 825.038 1138.64 849.129C1152.64 876.94 1145.18 830.787 1259.59 914.807C1265.39 931.642 1337.41 910.702 1366.48 902.368C1395.55 894.033 1653.51 808.181 1663.36 807.07L1735.45 802.785C1735.45 802.785 1743.6 814.167 1719.78 817.236C1695.96 820.306 1656.33 819.405 1624.54 829.63C1592.74 839.856 1403.45 896.167 1354.4 931.928C1305.35 967.688 1280.84 938.944 1273.12 938.944C1265.39 938.944 1260.63 952.809 1248.36 952.174C1236.09 951.539 1152.45 892.729 1086.23 906.538C1020 920.346 1137.84 940.055 1113.69 946.266C1089.54 952.478 1070.85 949.427 1070.85 949.427C1070.85 949.427 1023.89 933.192 1043.38 846.143L1014.45 842.723C1014.45 842.723 1005.94 867.454 1000.29 882.237L984.806 878.275C984.806 878.275 997.172 842.079 1001.54 837.837C1005.92 833.595 967.367 838.68 967.367 838.68C967.367 838.68 953.86 872.76 954.21 880.719C954.561 888.678 938.894 880.646 938.894 880.646C938.894 880.646 942.832 843.973 952.175 836.837C961.517 829.7 916.743 838.391 916.743 838.391C916.743 838.391 899.8 872.121 896.008 883.161C892.217 894.201 881.542 882.016 881.542 882.016C881.542 882.016 892.111 845.926 898.741 838.754C905.37 831.582 856.451 839.722 855.637 840.127C854.824 840.532 833.728 868.094 826.545 894.744C826.545 894.744 746.88 895.698 700.6 927.61C691.195 934.096 694.417 904.581 689.373 902.183C679.54 897.508 685.219 873.832 683.508 868.748C679.792 857.709 684.902 840.874 683.252 843.032Z" fill="none" opacity="1" stroke="#f7931e" stroke-linecap="butt" stroke-linejoin="round" stroke-width="1"/>
<path d="M894.16 763.728L835.845 779.654C848.756 777.461 857.885 775.213 872.848 773.096C872.848 773.096 886.965 767.081 894.16 763.728Z" fill="none" opacity="1" stroke="#f7931e" stroke-linecap="butt" stroke-linejoin="round" stroke-width="1"/>
<path d="M876.127 647.1C858.535 646.544 838.989 647.531 817.344 650.379C694.265 691.847 679.29 805.81 675.188 822.043L679.872 820.872L829.288 780.825L895.799 763.026L964.418 744.759L1027.88 727.663C1027.88 727.663 999.269 650.994 876.127 647.1Z" fill="none" opacity="1" stroke="#f7931e" stroke-linecap="butt" stroke-linejoin="round" stroke-width="1"/>
<path d="M1378.47 638.669C1320.79 655.825 1249.9 659.981 1249.9 659.981L1298.61 677.077L1284.8 691.597C1284.8 691.596 1285.88 694.61 1248.03 693.705C1221.56 717.522 1215.94 708.927 1215.94 708.927C1215.94 708.927 1214.84 709.544 1196.74 685.976C1150.48 683.182 1154.87 704.279 1066.99 744.759C907.533 761.466 967.592 763.424 873.316 797.218C778.258 791.229 680.064 847.159 683.151 843.12C684.801 840.964 679.904 857.607 683.619 868.647C685.331 873.732 679.641 897.462 689.474 902.137C694.518 904.536 691.312 934.15 700.716 927.664C746.996 895.749 826.478 894.643 826.478 894.643C833.66 867.993 854.938 840.479 855.752 840.076C856.566 839.67 905.474 831.497 898.844 838.671C892.214 845.845 881.513 881.996 881.513 881.996C881.514 881.995 892.243 894.206 896.033 883.167C899.824 872.128 916.642 838.436 916.642 838.436C916.643 838.435 961.583 829.662 952.24 836.797C942.896 843.934 938.891 880.591 938.891 880.591C938.891 880.591 954.464 888.782 954.113 880.825C953.764 872.867 967.462 838.671 967.462 838.671C967.462 838.671 1006.03 833.492 1001.65 837.734C997.281 841.975 984.793 878.249 984.793 878.249L1000.25 882.231C1005.91 867.449 1014.54 842.652 1014.54 842.652L1043.34 846.165C1023.85 933.214 1070.74 949.444 1070.74 949.444C1070.74 949.444 1089.45 952.378 1113.6 946.166C1137.75 939.954 1019.97 920.396 1086.2 906.587C1152.42 892.778 1235.99 951.62 1248.26 952.255C1260.53 952.889 1265.36 938.906 1273.09 938.906C1280.81 938.906 1305.3 967.64 1354.35 931.88C1403.4 896.12 1592.81 839.765 1624.61 829.537C1656.41 819.311 1695.88 820.193 1719.69 817.125C1743.51 814.056 1735.38 802.839 1735.38 802.839L1663.25 807.054C1653.4 808.166 1395.6 894.037 1366.53 902.371C1337.46 910.706 1265.3 931.62 1259.5 914.784C1145.09 830.763 1152.66 877.02 1138.66 849.209C1165.74 825.119 1169.88 795.082 1220.86 762.792C1286.38 739.921 1278 705.648 1278 705.648C1278 705.647 1313.52 721.647 1355.99 706.117C1398.46 690.589 1402.49 691.966 1412.2 700.028C1421.9 708.088 1440.59 702.057 1467.93 701.433C1495.28 700.808 1527.89 661.386 1527.89 661.386L1442.64 650.613L1432.1 665.835C1427.73 666.799 1414.05 669.195 1378.47 638.669Z" fill="none" opacity="1" stroke="#f7931e" stroke-linecap="butt" stroke-linejoin="round" stroke-width="1"/>
<path d="M881.513 585.507C851.663 584.219 818.886 589.091 783.386 602.603C594.054 674.663 622.255 853.557 625.305 897.219C628.354 940.883 689.109 1063.91 820.389 1081.06C967.113 1100.22 1030.77 1043.69 1075.19 976.611C1141.17 981.698 1137.41 969.699 1154.11 947.102C1201.61 952.259 1211.82 979.663 1233.74 995.815C1255.86 1011.97 1277.46 1001.99 1296.27 985.978C1337.47 963.645 1549.06 817.857 1714.54 838.436C1797.67 822.766 1765.77 797.068 1763.49 793.003C1681.86 785.715 1652.81 798.663 1607.05 811.036C1561.29 823.408 1301.25 932.157 1267.23 899.561C1233.22 866.967 1184.8 846.166 1184.79 846.165C1184.79 846.165 1231.72 781.688 1246.62 779.419C1261.52 777.152 1295.27 771.265 1321.1 743.588C1402.56 741.979 1383.52 744.716 1408.68 725.321L1472.38 725.789C1472.38 725.789 1528.89 716.412 1567 651.081C1567 651.081 1584.93 641.902 1467.47 642.416C1439.57 634.286 1418.52 622.044 1418.52 622.041C1418.52 622.041 1236.32 653.837 1192.29 652.018L1213.37 671.69C1213.37 671.69 1182.25 666.384 1146.85 677.311C1133.43 681.455 1127.1 689.758 1110.32 698.857C1103.2 702.717 1102.02 706.553 1095.8 709.161C1093.6 710.082 1087.85 707.107 1085.03 709.161C1085.03 709.161 1010.86 591.088 881.513 585.507ZM1378.47 638.669C1414.05 669.195 1427.73 666.8 1432.1 665.835L1442.64 650.613L1527.89 661.386C1527.89 661.386 1495.28 700.808 1467.93 701.433C1440.59 702.057 1421.9 708.088 1412.2 700.028C1402.49 691.968 1398.46 690.588 1355.99 706.117C1313.52 721.645 1278 705.649 1278 705.648C1278 705.648 1286.38 739.921 1220.86 762.792C1169.88 795.082 1165.74 825.12 1138.66 849.209C1152.66 877.02 1145.09 830.763 1259.5 914.784C1265.3 931.619 1337.46 910.706 1366.53 902.371C1395.6 894.037 1653.4 808.166 1663.25 807.054L1735.38 802.839C1735.38 802.839 1743.51 814.056 1719.69 817.125C1695.87 820.194 1656.41 819.31 1624.61 829.537C1592.81 839.762 1403.4 896.121 1354.35 931.88C1305.3 967.64 1280.82 938.904 1273.09 938.906C1265.36 938.906 1260.53 952.889 1248.26 952.255C1235.99 951.62 1152.42 892.778 1086.2 906.587C1019.97 920.396 1137.75 939.956 1113.6 946.166C1089.45 952.377 1070.74 949.446 1070.74 949.444C1070.74 949.444 1023.85 933.214 1043.34 846.165L1014.54 842.652C1014.54 842.652 1005.91 867.449 1000.25 882.231L984.793 878.249C984.793 878.249 997.281 841.975 1001.65 837.734C1006.03 833.492 967.463 838.671 967.462 838.671C967.462 838.671 953.764 872.867 954.113 880.825C954.464 888.784 938.889 880.59 938.891 880.591C938.891 880.591 942.896 843.934 952.24 836.797C961.582 829.661 916.645 838.435 916.642 838.436C916.642 838.436 899.824 872.128 896.033 883.167C892.242 894.207 881.514 881.994 881.513 881.996C881.513 881.996 892.214 845.845 898.844 838.671C905.473 831.498 856.566 839.669 855.752 840.076C854.938 840.481 833.66 867.993 826.478 894.643C826.478 894.643 746.996 895.749 700.716 927.664C691.31 934.15 694.519 904.537 689.474 902.137C679.641 897.462 685.331 873.735 683.619 868.647C679.904 857.608 684.8 840.964 683.151 843.12C680.064 847.159 778.257 791.229 873.316 797.218C967.592 763.421 907.534 761.467 1066.99 744.759C1154.86 704.279 1150.48 683.182 1196.74 685.976C1214.84 709.545 1215.94 708.927 1215.94 708.927C1215.94 708.927 1221.56 717.522 1248.03 693.705C1285.88 694.611 1284.79 691.598 1284.8 691.597L1298.61 677.077L1249.9 659.981C1249.9 659.981 1320.79 655.825 1378.47 638.669ZM876.127 647.1C999.269 650.994 1027.89 727.663 1027.88 727.663L964.418 744.759L894.16 763.728C886.965 767.081 872.848 773.096 872.848 773.096C857.885 775.214 848.757 777.46 835.845 779.654L675.423 823.214C675.423 823.214 678.4 821.713 679.872 820.872L675.188 822.043C679.293 805.81 694.263 691.846 817.344 650.379C838.989 647.531 858.535 646.543 876.127 647.1Z" fill="#f7931e" fill-rule="nonzero" opacity="1" stroke="#f7931e" stroke-linecap="butt" stroke-linejoin="round" stroke-width="1"/>
<path d="M675.392 823.25C675.392 823.25 715.72 795.253 872.887 773.006C872.887 773.006 937.007 738.003 1026.85 727.57L675.392 823.25Z" fill="none" opacity="1" stroke="#f7931e" stroke-linecap="butt" stroke-linejoin="round" stroke-width="1"/>
<path d="M1027.8 727.588C1027.8 727.588 990.495 627.499 817.337 650.284C694.257 691.752 679.196 805.923 675.091 822.156" fill="none" opacity="1" stroke="#f7931e" stroke-linecap="butt" stroke-linejoin="round" stroke-width="1"/>
<path d="M1066.73 788.218" fill="none" opacity="1" stroke="#f7931e" stroke-linecap="butt" stroke-linejoin="round" stroke-width="1"/>
</g>
</svg>
