<?xml version="1.0" encoding="UTF-8" standalone="no"?>
<svg
   version="1.1"
   viewBox="0 0 308 100"
   id="svg113"
   sodipodi:docname="logo*.svg"
   inkscape:version="1.2.2 (b0a8486541, 2022-12-01)"
   xmlns:inkscape="http://www.inkscape.org/namespaces/inkscape"
   xmlns:sodipodi="http://sodipodi.sourceforge.net/DTD/sodipodi-0.dtd"
   xmlns="http://www.w3.org/2000/svg"
   xmlns:svg="http://www.w3.org/2000/svg">
  <defs
     id="defs117" />
  <sodipodi:namedview
     id="namedview115"
     pagecolor="#ffffff"
     bordercolor="#000000"
     borderopacity="0.25"
     inkscape:showpageshadow="2"
     inkscape:pageopacity="0.0"
     inkscape:pagecheckerboard="0"
     inkscape:deskcolor="#d1d1d1"
     showgrid="false"
     inkscape:zoom="9.2519076"
     inkscape:cx="121.11016"
     inkscape:cy="50.854377"
     inkscape:window-width="2117"
     inkscape:window-height="1372"
     inkscape:window-x="0"
     inkscape:window-y="0"
     inkscape:window-maximized="1"
     inkscape:current-layer="svg113" />
  <path
     d="m78.82 2.94 0.44 52.62a0.8 0.74 0.8 0 0 0.78 0.74l10.15 0.21a0.56 0.51-89.5 0 1 0.5 0.56l0.12 7.61a0.51 0.51 0.6 0 0 0.5 0.51l21.4 0.31q-0.97 2.6-2.71 3-4.47 1.03-11.98 0.82-0.12-0.01-3.53 0.05-3.54 0.07-6.43-1.43-2.07-1.07-3.97-1.57-1.75-0.45-4.15 0.12-8.69 2.06-16.82 4.03-1.71 0.42-2.89-0.89-1.02-1.12-2.15-1.12-0.38-0.01-2.17 0.45-3.26 0.83-2.19 3.49 0.6 1.48 2.42 2.19 5.09 2 10.61 0.61 0.47-0.12 15.39-2.69 0.43-0.07 0.73-0.02 0.73 0.13 0.53 0.59-0.12 0.28-0.58 0.44-6.14 2.14-13.01 2.98-3.73 0.47-1.39 3.4 3.29 4.12 9.4 1.64 0.63-0.25 1.14 0.16l0.12 12.07a0.54 0.51-0.6 0 1-0.53 0.51l-23.02 0.16a0.55 0.54-0.5 0 1-0.55-0.53l-0.21-16.13a0.84 0.81 89.6 0 0-0.81-0.83h-40.02a0.85 0.82 82.8 0 1-0.8-0.64l-4.41-17.19a1.56 1.46 57.3 0 1 0.23-1.27l41.49-55a1.06 1.03-72.3 0 1 0.79-0.42q13.54-0.54 27.08-0.06a0.53 0.52-89.4 0 1 0.5 0.52zm-26.98 31.42q-7.76 10.73-15.46 21.36-0.38 0.53 0.27 0.53h17.82a0.53 0.53 45 0 0 0.53-0.53v-24.61q0-0.88-0.55-0.19-1.35 1.7-2.61 3.44z"
     fill="#ea6640"
     id="path81" />
  <path
     d="m91.42 2.75h63.3a0.77 0.76 0.4 0 1 0.77 0.77l-0.05 18.93a0.81 0.8 0 0 1-0.81 0.8l-38.83 0.06a0.5 0.48-90 0 0-0.48 0.5l0.24 17.88q0.01 0.49 0.35 0.12 7.49-8.04 18.08-8.46 4.64-0.19 9.01 0.38 4.76 0.62 8.69 2.83 3.54 2 5.56 6.4-36.25 5.95-40.5 6.29-4.42 0.35-12.44-0.81-1.97-0.29-13.56-3.73v-41.29a0.67 0.67-5.8 0 1 0.67-0.67z"
     fill="#ea6640"
     id="path83" />
  <path
     d="m175 2.82q37.72-0.4 41.5 0.18 10.38 1.6 12.88 12.31 0.38 1.63 0.67-0.02 1.32-7.56 7.46-10.59 3.41-1.68 11.74-1.85 16.27-0.33 32.54 0.02 7.69 0.16 10.72 1.49 5.64 2.46 7.49 8.89 1.22 4.24 1.11 10.22-0.09 5.48-0.09 5.57 0.3 48.1-0.27 51.96-1.25 8.43-7.84 11.65-3.23 1.58-10.58 1.71-16.29 0.3-32.58 0.14-5.95 0.09-9.44-0.81-7.65-1.98-9.81-10.15 0.37-0.64 0.94-0.6 4.83-1.15 9.74-1.81a1.1 1.06 61.1 0 1 0.87 0.27q1.93 1.73 4.47 2.35a1.43 1.42-79.4 0 0 1.76-1.21q0.57-4.66 5.47-3.04 1.35 0.45 10 1.21 3.23 0.28 6.35-0.66a1.3 1.29-23.1 0 0 0.76-1.88q-0.99-1.75-0.86-3.88l4.94-0.35a1.41 1.34-2.1 0 0 1.31-1.34v-48.44a0.67 0.67 1.8 0 0-0.63-0.67q-9.77-0.56-20.25-0.02a0.92 0.92-0.7 0 0-0.88 0.9q-0.58 24.38-0.03 49.13-0.26 0.64-0.97 0.58-2.99-0.24-7.03-0.36-0.91-0.03-1.76-0.45l-8.5-4.29q-1.96-0.99-4.14-0.76l-22.22 2.36a1.49 1.47-8.5 0 1-1.61-1.18q-0.84-4.33 1.83-7.14 1.39-1.47 4.02-1.66 11.24-0.85 19.98 3.09 6.57 2.95 9.19 3.81 1.71 0.56 2.09-0.7a0.68 0.6 24 0 0-0.34-0.74l-4.24-2.38a0.73 0.54 25.8 0 1-0.38-0.73q0.2-0.59 1.06-0.39 0.25 0.06 4.2 1.57 2.11 0.81 3.32 0.51 1.5-0.38 3.12-1.71 1.7-1.4-0.24-2.42-4.43-2.33-8.65-5.2-1-1.26-2.12-2.4-1.03-1.05-2.61-1.7-4.27-1.74-8.5-3.59-1.31-0.57-2.21-1.59-0.92-1.05-1.79-2.14-1.29-1.62-2.61-1.82-1.56-0.24-3.41 0.37-1.63 0.53-1.39 1.89a1.01 0.95-84.9 0 0 0.57 0.73l2.11 0.87a0.51 0.36 26.7 0 1 0.32 0.6q-0.17 0.26-0.55 0.22-6.47-0.75-15.71-2.5l-0.29-19.9a0.86 0.86 1.1 0 0-0.82-0.85q-9.96-0.57-19.84-0.07a1.21 1.16 89.3 0 0-1.11 1.19l-0.23 16.59q-12.34 1.37-24.75 1.75 0.26-13.11 0.5-26.21 2.01-13.78 16.25-13.93z"
     fill="#ea6640"
     id="path85" />
  <path
     d="m 191,41.5 c 4.66,1.48 9.42333,2.396667 14.29,2.75 6.16,1.166667 11.39667,2 15.71,2.5 0.25333,0.02667 0.43667,-0.04667 0.55,-0.22 0.12784,-0.187303 -0.026,-0.475795 -0.32,-0.6 l -2.11,-0.87 c -0.29408,-0.12537 -0.50802,-0.399362 -0.57,-0.73 -0.16,-0.906667 0.30333,-1.536667 1.39,-1.89 1.23333,-0.406667 2.37,-0.53 3.41,-0.37 0.88,0.133333 1.75,0.74 2.61,1.82 0.58,0.726667 1.17667,1.44 1.79,2.14 0.6,0.68 1.33667,1.21 2.21,1.59 2.82,1.233333 5.65333,2.43 8.5,3.59 1.05333,0.433333 1.92333,1 2.61,1.7 0.74667,0.76 1.45333,1.56 2.12,2.4 2.81333,1.913333 5.69667,3.646667 8.65,5.2 1.29333,0.68 1.37333,1.486667 0.24,2.42 -1.08,0.886667 -2.12,1.456667 -3.12,1.71 -0.80667,0.2 -1.91333,0.03 -3.32,-0.51 -2.63333,-1.006667 -4.03333,-1.53 -4.2,-1.57 -0.57333,-0.133333 -0.92667,-0.0033 -1.06,0.39 -0.0864,0.247577 0.0737,0.555071 0.38,0.73 l 4.24,2.38 c 0.28413,0.156507 0.42654,0.46645 0.34,0.74 -0.25333,0.84 -0.95,1.073333 -2.09,0.7 -1.74667,-0.573333 -4.81,-1.843333 -9.19,-3.81 -5.82667,-2.626667 -12.48667,-3.656667 -19.98,-3.09 -1.75333,0.126667 -3.09333,0.68 -4.02,1.66 -1.78,1.873333 -2.39,4.253333 -1.83,7.14 0.14512,0.746379 0.84331,1.258096 1.61,1.18 l 22.22,-2.36 c 1.45333,-0.153333 2.83333,0.1 4.14,0.76 l 8.5,4.29 c 0.56667,0.28 1.15333,0.43 1.76,0.45 2.69333,0.08 5.03667,0.2 7.03,0.36 0.47333,0.04 0.79667,-0.153333 0.97,-0.58 0.13333,0.32 0.31333,0.486667 0.54,0.5 4.06667,0.246667 9.06667,0.343333 15,0.29 -0.0867,1.42 0.2,2.713333 0.86,3.88 0.41253,0.720553 0.0411,1.639214 -0.76,1.88 -2.08,0.626667 -4.19667,0.846667 -6.35,0.66 -5.76667,-0.506667 -9.1,-0.91 -10,-1.21 -3.26667,-1.08 -5.09,-0.06667 -5.47,3.04 -0.1074,0.852924 -0.9326,1.420248 -1.76,1.21 -1.69333,-0.413333 -3.18333,-1.196667 -4.47,-2.35 -0.2408,-0.215224 -0.55916,-0.314026 -0.87,-0.27 -3.27333,0.44 -6.52,1.043333 -9.74,1.81 -0.38,-0.02667 -0.69333,0.173333 -0.94,0.6 -0.6,-0.706667 -1.18333,-0.623333 -1.75,0.25 l -20.15,2.45 c -1.48667,0.18 -2.56333,-0.386667 -3.23,-1.7 -1,-1.946667 -3.07,-2.98 -6.21,-3.1 -0.54856,-0.02546 -1.06805,-0.360499 -1.38,-0.89 l -3.31,-5.64 c -0.19827,-0.33839 -0.63065,-0.471103 -1.01,-0.31 -2.94,1.26 -5.99,1.88 -9.15,1.86 -2.42,-0.01333 -4.45667,-0.206667 -6.11,-0.58 -2.04,-0.466667 -3.92,-1.363333 -5.64,-2.69 -5.78667,-4.466667 -12.23333,-7.373333 -19.34,-8.72 -2.00667,-0.38 -3.97333,-0.28 -5.9,0.3 -2.55333,0.773333 -5.00333,1.79 -7.35,3.05 -1.45333,0.78 -2.63667,1.88 -3.55,3.3 -0.89333,1.4 -1.72333,2.843333 -2.49,4.33 -0.54,1.053333 -1.36667,1.74 -2.48,2.06 l -18.83,5.34 c -1.2,0.34 -2.38667,0.25 -3.56,-0.27 -3.48667,-1.566667 -7.09,-3.093333 -10.81,-4.58 -3.22,-1.286667 -6.136667,-1.356667 -8.75,-0.21 -3.153333,0.973333 -6.3,1.98 -9.44,3.02 -0.62,0.06667 -0.986667,0.38 -1.1,0.94 -0.34,-0.273333 -0.72,-0.326667 -1.14,-0.16 -4.073333,1.653333 -7.206667,1.106667 -9.4,-1.64 -1.56,-1.953333 -1.096667,-3.086667 1.39,-3.4 4.58,-0.56 8.916667,-1.553333 13.01,-2.98 0.306667,-0.106667 0.5,-0.253333 0.58,-0.44 0.133333,-0.306667 -0.04333,-0.503333 -0.53,-0.59 -0.2,-0.03333 -0.443333,-0.02667 -0.73,0.02 -9.946667,1.713333 -15.076667,2.61 -15.39,2.69 -3.68,0.926667 -7.216667,0.723333 -10.61,-0.61 -1.213333,-0.473333 -2.02,-1.203333 -2.42,-2.19 -0.713333,-1.773333 0.01667,-2.936667 2.19,-3.49 1.193333,-0.306667 1.916667,-0.456667 2.17,-0.45 0.753333,0 1.47,0.373333 2.15,1.12 0.786667,0.873333 1.75,1.17 2.89,0.89 5.42,-1.313333 11.026667,-2.656667 16.82,-4.03 1.6,-0.38 2.983333,-0.42 4.15,-0.12 1.266667,0.333333 2.59,0.856667 3.97,1.57 1.926667,1 4.07,1.476667 6.43,1.43 2.273333,-0.04 3.45,-0.05667 3.53,-0.05 5.00667,0.14 9,-0.133333 11.98,-0.82 1.16,-0.266667 2.06333,-1.266667 2.71,-3 L 122,55.29 c 1.02667,-0.546667 1.61667,-1.333333 1.77,-2.36 0.0435,-0.256164 -0.17579,-0.489714 -0.46,-0.49 -3.11333,0.01333 -6.21667,0.2 -9.31,0.56 -7.26667,-0.6 -14.29,-2.24 -21.07,-4.92 -0.686667,-0.273333 -1.4,-0.383333 -2.14,-0.33 -0.846667,-0.866667 -2.203333,-1.496667 -4.07,-1.89 -0.675516,-0.145576 -1.201398,-0.679307 -1.34,-1.36 -0.193333,-0.94 0.09667,-1.356667 0.87,-1.25 1.42,0.72 2.92,1.206667 4.5,1.46 7.726667,2.293333 12.24667,3.536667 13.56,3.73 5.34667,0.773333 9.49333,1.043333 12.44,0.81 2.83333,-0.226667 16.33333,-2.323333 40.5,-6.29 h 1 c 8.27333,-0.253333 16.52333,-0.836667 24.75,-1.75 2.68667,-0.26 5.35333,-0.163333 8,0.29 z m 1.05335,2.633534 c -0.54139,-0.357045 -1.25115,-0.709633 -1.84803,-0.721907 -0.19806,0.421146 -0.36436,0.942179 -1.42293,0.756203 -0.93593,0.128618 -0.80206,0.0229 -1.16239,-0.85783 -0.44045,-0.145093 -1.12963,0.132501 -1.40436,0.529607 0.88517,1.026038 -0.0883,2.139265 -1.23561,1.419292 -0.47341,0.635807 -0.72265,1.012614 -0.56646,1.914426 1.04487,-0.153025 1.03619,1.423148 0.21645,1.696675 -0.93478,0.08603 -0.59,0.786667 -0.61,0.86 0.21884,0.96087 0.24667,0.853333 1.3,0.74 0.63971,-0.0731 1.19631,0.436334 1.18,1.08 -0.17756,1.567426 0.0664,1.078566 0.6986,1.463177 1.06919,0.428979 0.88959,-0.40919 1.43489,-1.037881 0.56543,-0.10253 1.4,0.09233 1.86428,0.956142 0.17063,0.220118 1.24424,0.0136 1.32424,-0.573065 -0.61496,-1.227517 0.28342,-2.062913 1.57188,-1.72362 0.21173,-0.381462 0.52007,-1.158905 0.4272,-1.657481 -1.13103,-0.318941 -1.29515,-1.944109 0.25725,-2.29446 0.20937,-0.313954 -0.32191,-1.070223 -0.6943,-1.400835 l -0.93089,0.281392 c -0.25669,-0.06768 -1.31844,-0.441769 -0.3998,-1.429835 z M 204.31,51.68 c -0.49146,-0.128392 -0.83097,-0.683197 -0.82,-1.34 0.0467,-1.953333 -0.67667,-2.313333 -2.17,-1.08 -0.72027,0.602568 -1.77471,0.581223 -2.47,-0.05 -0.94,-0.853333 -1.69333,-0.953333 -2.26,-0.3 -0.17015,0.187817 -0.24412,0.524369 -0.2,0.91 0.2,1.62 -0.53667,2.313333 -2.21,2.08 -0.33977,-0.04414 -0.65734,0.04448 -0.86,0.24 -0.88667,0.88 -0.81,1.6 0.23,2.16 0.74213,0.397234 0.93161,1.373798 0.39,2.01 -1.02,1.22 -1.29667,2.07 -0.83,2.55 0.12667,0.126667 0.75,0.26 1.87,0.4 1.23333,0.153333 1.7,0.906667 1.4,2.26 -0.0748,0.341438 -0.002,0.665013 0.19,0.85 0.71333,0.673333 1.46333,0.466667 2.25,-0.62 0.46602,-0.644155 1.4026,-0.706594 1.95,-0.13 0.99333,1.04 1.73667,1.416667 2.23,1.13 0.24,-0.14 0.40667,-0.696667 0.5,-1.67 0.14,-1.493333 1.05667,-2.13 2.75,-1.91 0.33446,0.04099 0.64016,-0.09577 0.76,-0.34 0.26,-0.533333 0.2,-1.016667 -0.18,-1.45 l -0.87,-1 c -0.33333,-0.726667 -0.13333,-1.416667 0.6,-2.07 1.19333,-1.053333 1.17333,-1.74 -0.06,-2.06 z m -31.37,9.52 c -2.16,0.106667 -2.85,1.2 -2.07,3.28 0.0925,0.254205 0.37666,0.410668 0.69,0.38 1.12667,-0.106667 1.92,0.376667 2.38,1.45 0.54,1.266667 0.43,2.303333 -0.33,3.11 -0.22619,0.237219 -0.30807,0.553066 -0.21,0.81 0.35333,0.886667 0.98,1.51 1.88,1.87 0.25943,0.09794 0.5797,0.02077 0.83,-0.2 1.35333,-1.173333 2.70333,-1.096667 4.05,0.23 0.20067,0.199733 0.28996,0.515962 0.24,0.85 -0.13333,0.853333 0.12,1.353333 0.76,1.5 0.28,0.06667 0.83333,0.12 1.66,0.16 1,0.04667 1.44,-0.483333 1.32,-1.59 -0.0382,-0.342046 0.0534,-0.66106 0.25,-0.87 1.42667,-1.546667 2.85,-1.64 4.27,-0.28 0.23654,0.225457 0.57093,0.264542 0.77,0.09 l 1.76,-1.58 c 0.20256,-0.189346 0.1982,-0.538044 -0.01,-0.8 -1.92,-2.486667 -1.32667,-4.17 1.78,-5.05 0.31118,-0.0872 0.5501,-0.314738 0.63,-0.6 0.49333,-1.806667 -0.14,-2.77 -1.9,-2.89 -0.34762,-0.01871 -0.64896,-0.16203 -0.82,-0.39 -1.12,-1.433333 -1.11,-2.79 0.03,-4.07 0.20686,-0.234515 0.24382,-0.558906 0.09,-0.79 -0.5,-0.733333 -1.15333,-1.263333 -1.96,-1.59 -0.24559,-0.104875 -0.5468,-2.91e-4 -0.72,0.25 -0.62667,0.906667 -1.41,1.143333 -2.35,0.71 -0.77333,-0.36 -1.26333,-0.613333 -1.47,-0.76 -0.54,-0.373333 -0.71333,-0.976667 -0.52,-1.81 0.075,-0.335734 -0.13771,-0.666132 -0.47,-0.73 -2.34667,-0.453333 -3.45333,0.166667 -3.32,1.86 0.0252,0.341383 -0.0916,0.650444 -0.31,0.82 -1.4,1.1 -2.73667,1.106667 -4.01,0.02 -0.23978,-0.21142 -0.56902,-0.262989 -0.83,-0.13 -0.71333,0.36 -1.28667,0.873333 -1.72,1.54 -0.1465,0.234465 -0.1011,0.552258 0.11,0.77 1.20667,1.226667 1.31,2.566667 0.31,4.02 -0.15708,0.238412 -0.45076,0.39083 -0.79,0.41 z m 63.68,12.87 c -1.87333,-1.153333 -3.93333,-1.363333 -6.18,-0.63 -4.05333,0.986667 -8.05333,2.15 -12,3.49 -0.42,0.146667 -0.50333,0.313333 -0.25,0.5 0.11333,0.08667 0.3,0.11 0.56,0.07 5.82667,-0.92 11.68667,-1.65 17.58,-2.19 1.34,-0.12 1.43667,-0.533333 0.29,-1.24 z"
     fill="#506fa3"
     id="path93"
     sodipodi:nodetypes="cccccccccccccccccccccccccccccccccccccccccccccccccccccccccccccccccccccccccccccccccccccccccccccccccccccccccccccccccccccccccccccccccccsccccccccccccccccccccccccccccccccccccccccccccccccccccccccccccccccccc" />
  <circle
     cx="189.05"
     cy="48.04"
     r="2.24"
     fill="#506fa3"
     id="circle97" />
  <path
     d="m90.79 47.75q1.11-0.08 2.14 0.33 10.17 4.02 21.07 4.92 4.64-0.54 9.31-0.56a0.46 0.42 4.2 0 1 0.46 0.49q-0.23 1.54-1.77 2.36l-5.59 2.15a4.13 2.27-34.9 0 1-2.33 0.25l-22.79-6.36a0.82 0.8 3.1 0 1-0.58-0.63q-0.26-1.45 0.08-2.95z"
     fill="#dd6a4d"
     id="path99" />
  <circle
     cx="199.97"
     cy="55.62"
     r="3.26"
     fill="#506fa3"
     id="circle105" />
  <circle
     cx="182.19"
     cy="63.14"
     r="4.94"
     fill="#506fa3"
     id="circle107" />
  <path
     d="m153.22 64.47q10.66 2.02 19.34 8.72 2.58 1.99 5.64 2.69 2.48 0.56 6.11 0.58 4.74 0.03 9.15-1.86a0.82 0.78-26.7 0 1 1.01 0.31l3.31 5.64a1.83 1.6 74 0 0 1.38 0.89q4.71 0.18 6.21 3.1 1 1.97 3.23 1.7l20.15-2.45q-1.91 7.63-9.25 9.71-4.63 1.32-10.25 1.23-16.25-0.23-32.5-0.23-3.66 0-7.19-0.96-9.7-2.65-11.01-12.76-0.13-0.94-0.26 0.06-1.16 8.59-7.85 11.83-3.2 1.54-10.64 1.69-29.6 0.59-35.05 0.14-15.43-1.27-15.25-16.71 3.92-1.72 8.75 0.21 5.58 2.23 10.81 4.58 1.76 0.78 3.56 0.27l18.83-5.34q1.67-0.48 2.48-2.06 1.15-2.23 2.49-4.33 1.37-2.13 3.55-3.3 3.52-1.89 7.35-3.05 2.89-0.87 5.9-0.3z"
     fill="#ea6640"
     id="path109" />
  <path
     d="m236.62 74.07q1.72 1.06-0.29 1.24-8.84 0.81-17.58 2.19-0.39 0.06-0.56-0.07-0.38-0.28 0.25-0.5 5.92-2.01 12-3.49 3.37-1.1 6.18 0.63z"
     fill="#dd6a4d"
     id="path111" />
</svg>
